<?xml version="1.0" encoding="UTF-8"?>
<svg xmlns="http://www.w3.org/2000/svg" xmlns:xlink="http://www.w3.org/1999/xlink" viewBox="0 0 1000 1000">
  <defs>
    <style>
      .cls-1 {
        fill: url(#Degradado_sin_nombre_17);
      }

      .cls-2 {
        fill: #5a0019;
      }
    </style>
    <linearGradient id="Degradado_sin_nombre_17" data-name="Degradado sin nombre 17" x1="147.81" y1="493.66" x2="848.27" y2="493.66" gradientUnits="userSpaceOnUse">
      <stop offset="0" stop-color="#e9d384"/>
      <stop offset=".01" stop-color="#ead58a"/>
      <stop offset=".07" stop-color="#f1e2aa"/>
      <stop offset=".13" stop-color="#f7ecc4"/>
      <stop offset=".2" stop-color="#fbf4d6"/>
      <stop offset=".26" stop-color="#fef8e1"/>
      <stop offset=".34" stop-color="#fffae5"/>
      <stop offset=".42" stop-color="#faf2d3"/>
      <stop offset=".59" stop-color="#f0e0a4"/>
      <stop offset=".7" stop-color="#e9d384"/>
      <stop offset=".72" stop-color="#e9d384"/>
      <stop offset="1" stop-color="#e9d384"/>
    </linearGradient>
  </defs>
  <g id="Capa_1" data-name="Capa 1">
    <rect class="cls-2" y="0" width="1000" height="1000"/>
  </g>
  <g id="Capa_2" data-name="Capa 2">
    <path class="cls-1" d="M846.41,575.59c-2.74-16.92-7.78-32.77-15.16-47.52-7.37-14.75-17.08-27.71-29.08-38.92-12.02-11.19-25.68-19.79-40.96-25.8-24.04-9.83-49.16-13.38-75.38-10.65,10.37-5.45,20.34-11.74,29.91-18.84,9.55-7.09,17.88-15.43,24.99-24.99,7.09-9.55,12.29-20.48,15.57-32.77,3.28-12.29,3.82-26.08,1.64-41.37-2.19-13.65-6.84-26.08-13.93-37.28-7.1-11.19-15.98-20.89-26.63-29.08-10.65-8.19-22.53-14.47-35.64-18.84-13.11-4.36-27.04-6.56-41.78-6.56-28.96,0-51.21,4.79-66.77,14.34-15.57,9.56-27.18,19.53-34.82,29.9-3.03,4.04-5.27,7.82-6.9,11.38v-21.21c0-4.37,1.37-8.32,4.09-11.88,2.74-3.55,6.02-6.55,9.83-9.01,3.83-2.46,7.37-4.5,10.65-6.15,3.28-1.64,5.2-2.73,5.74-3.28h-127.46c.54.55,2.46,1.64,5.74,3.28,3.28,1.64,6.82,3.69,10.65,6.15,3.81,2.46,7.09,5.47,9.83,9.01,2.73,3.56,4.09,7.51,4.09,11.88v21.21c-1.63-3.56-3.88-7.34-6.9-11.38-7.64-10.37-19.25-20.34-34.82-29.9-15.57-9.55-37.81-14.34-66.77-14.34-14.75,0-28.68,2.19-41.78,6.56-13.11,4.38-24.99,10.65-35.64,18.84-10.65,8.19-19.52,17.89-26.63,29.08-7.09,11.2-11.74,23.63-13.93,37.28-2.18,15.3-1.64,29.08,1.64,41.37,3.28,12.29,8.47,23.22,15.57,32.77,7.1,9.56,15.44,17.89,24.99,24.99,9.56,7.1,19.53,13.39,29.91,18.84-26.22-2.73-51.33.82-75.38,10.65-15.29,6.02-28.94,14.62-40.96,25.8-12.01,11.2-21.71,24.17-29.08,38.92-7.37,14.75-12.42,30.6-15.16,47.52-2.73,16.94-2.46,34.14.82,51.62,6.02,33.87,22.4,61.18,49.16,81.93,30.04,23.49,69.64,35.23,118.79,35.23h359.2c49.16,0,88.75-11.74,118.79-35.23,26.76-20.75,43.14-48.05,49.16-81.93,3.28-17.47,3.55-34.68.82-51.62ZM308.2,426.48c-7.37-15.84-10.51-33.18-9.42-52.03,1.1-18.84,5.88-37.28,14.34-55.3,8.47-18.02,19.26-32.49,32.36-43.42,13.11-10.92,28-16.66,44.65-17.21,16.67-.54,33.46,7.1,50.39,22.94,7.66,7.11,13.25,14.21,16.8,21.3,3.26,6.51,5.67,12.05,7.31,16.72v246.14c-7.07-15.5-17-30.62-29.84-45.35-13.11-15.01-27.86-27.98-44.24-38.91-7.09-4.37-14.2-8.19-21.3-11.47-7.09-3.28-14.47-6.27-22.12-9.01-18.56-7.09-31.54-18.56-38.92-34.41ZM329.09,735.35c-32.77,0-58.17-7.64-76.2-22.94-18.02-15.28-29.9-34-35.64-56.12-5.74-22.12-6.15-45.47-1.23-70.05,4.91-24.58,14.07-46.56,27.45-65.95,13.39-19.38,30.04-33.72,49.97-43.01,19.95-9.28,41.92-9.55,65.95-.82,12.57,4.38,24.72,11.06,36.46,20.07,11.75,9.02,22.26,18.98,31.54,29.91,9.29,10.93,17.2,22.26,23.76,34,6.23,11.18,10.68,21.45,13.46,30.89v122.73c0,4.38-1.37,8.33-4.09,11.88-2.74,3.56-5.74,6.69-9.01,9.42-.33.27-.65.47-.98.73l-121.45-.73ZM538.77,302.77c3.54-7.09,9.14-14.2,16.8-21.3,16.92-15.84,33.72-23.48,50.39-22.94,16.65.55,31.54,6.29,44.65,17.21,13.11,10.93,23.89,25.4,32.36,43.42,8.46,18.02,13.24,36.46,14.34,55.3,1.09,18.84-2.05,36.19-9.42,52.03-7.37,15.85-20.36,27.32-38.92,34.41-7.65,2.74-15.03,5.74-22.12,9.01-7.1,3.28-14.21,7.1-21.3,11.47-16.39,10.93-31.13,23.9-44.24,38.91-12.84,14.73-22.77,29.84-29.84,45.35v-246.14c1.65-4.67,4.05-10.21,7.31-16.72ZM778.82,656.29c-5.74,22.12-17.61,40.84-35.64,56.12-18.02,15.3-43.42,22.94-76.2,22.94l-121.45.73c-.33-.26-.65-.46-.98-.73-3.28-2.73-6.27-5.87-9.01-9.42-2.73-3.54-4.09-7.5-4.09-11.88v-122.73c2.77-9.44,7.22-19.71,13.46-30.89,6.56-11.74,14.47-23.07,23.76-34,9.28-10.92,19.79-20.89,31.54-29.91,11.74-9.01,23.89-15.69,36.46-20.07,24.03-8.73,46.01-8.46,65.95.82,19.93,9.3,36.59,23.63,49.97,43.01,13.38,19.4,22.53,41.38,27.45,65.95,4.92,24.58,4.51,47.93-1.23,70.05Z"/>
  </g>
</svg>